<svg width="21" height="25" viewBox="0 0 21 25" fill="none" xmlns="http://www.w3.org/2000/svg">
<path id="Vector" d="M10.8772 7.39592C9.92924 7.39592 8.46224 6.31792 6.91724 6.35592C4.87724 6.38292 3.00724 7.53892 1.95624 9.36992C-0.160761 13.0449 1.41024 18.4729 3.47524 21.4599C4.48824 22.9139 5.68324 24.5499 7.26724 24.4989C8.78724 24.4339 9.35724 23.5119 11.2022 23.5119C13.0332 23.5119 13.5522 24.4989 15.1622 24.4599C16.7992 24.4339 17.8382 22.9799 18.8382 21.5119C19.9942 19.8239 20.4742 18.1869 20.5002 18.0969C20.4612 18.0839 17.3182 16.8759 17.2802 13.2399C17.2542 10.1999 19.7602 8.74592 19.8772 8.68092C18.4482 6.59092 16.2542 6.35692 15.4872 6.30492C13.4872 6.14892 11.8122 7.39592 10.8772 7.39592ZM14.2552 4.32992C15.0982 3.31792 15.6552 1.90292 15.5002 0.499916C14.2932 0.551916 12.8382 1.30492 11.9682 2.31792C11.1882 3.21392 10.5142 4.65592 10.6952 6.03192C12.0332 6.13592 13.4102 5.34392 14.2542 4.33092" fill="#09090B"/>
</svg>
