<svg width="17" height="16" viewBox="0 0 17 16" fill="none" xmlns="http://www.w3.org/2000/svg">
<path id="Vector" d="M15.4271 4.18009C14.7117 2.95437 13.7414 1.98397 12.5158 1.26867C11.29 0.553327 9.95177 0.195747 8.50022 0.195747C7.04886 0.195747 5.71022 0.553436 4.48469 1.26867C3.25898 1.98394 2.28865 2.95437 1.57327 4.18009C0.858003 5.40577 0.500351 6.74422 0.500351 8.1954C0.500351 9.9386 1.00894 11.5061 2.02637 12.8984C3.04368 14.2908 4.35791 15.2542 5.96893 15.7889C6.15646 15.8237 6.29528 15.7992 6.38554 15.7161C6.47584 15.6328 6.52093 15.5286 6.52093 15.4037C6.52093 15.3829 6.51915 15.1955 6.51568 14.8412C6.51239 14.5323 6.51064 14.2233 6.51043 13.9143L6.27083 13.9558C6.11808 13.9838 5.92537 13.9956 5.69271 13.9923C5.46016 13.989 5.21875 13.9646 4.9688 13.9193C4.71873 13.8744 4.48615 13.7703 4.27086 13.6071C4.05568 13.4439 3.90292 13.2303 3.81262 12.9666L3.70846 12.7269C3.63903 12.5673 3.52972 12.39 3.38039 12.1957C3.23107 12.0012 3.08006 11.8693 2.9273 11.7999L2.85437 11.7477C2.80577 11.713 2.76068 11.6712 2.71898 11.6226C2.67731 11.574 2.64612 11.5254 2.62529 11.4768C2.60442 11.4281 2.62171 11.3881 2.67735 11.3568C2.73299 11.3254 2.83354 11.3102 2.97944 11.3102L3.18769 11.3413C3.32658 11.3692 3.49838 11.4523 3.70331 11.5913C3.90813 11.7301 4.07651 11.9107 4.20847 12.1328C4.36827 12.4176 4.5608 12.6346 4.78659 12.7839C5.01221 12.9332 5.23969 13.0078 5.46881 13.0078C5.69793 13.0078 5.89582 12.9904 6.06255 12.9559C6.2291 12.9211 6.38536 12.8689 6.53126 12.7995C6.59375 12.3341 6.76392 11.9765 7.04159 11.7265C6.64582 11.6849 6.28999 11.6223 5.97393 11.539C5.65805 11.4556 5.33163 11.3203 4.99488 11.1326C4.65795 10.9452 4.37845 10.7124 4.1563 10.4348C3.93411 10.157 3.75176 9.7923 3.60951 9.34103C3.46719 8.88958 3.39601 8.36881 3.39601 7.77857C3.39601 6.93816 3.67037 6.22301 4.21898 5.6327C3.96198 5.00087 3.98625 4.29257 4.29184 3.50787C4.49323 3.4453 4.79188 3.49225 5.18766 3.64844C5.58351 3.8047 5.87334 3.93856 6.05744 4.04955C6.24154 4.1605 6.38904 4.25451 6.50017 4.33077C7.14612 4.15028 7.81272 4.06002 8.50015 4.06002C9.18758 4.06002 9.85433 4.15028 10.5003 4.33077L10.8961 4.08089C11.1668 3.91416 11.4864 3.76136 11.8543 3.62247C12.2223 3.48364 12.5038 3.44541 12.6983 3.50798C13.0107 4.29271 13.0385 5.00098 12.7814 5.6328C13.33 6.22311 13.6045 6.93846 13.6045 7.77868C13.6045 8.36892 13.533 8.89133 13.3909 9.34625C13.2486 9.80124 13.0647 10.1656 12.8391 10.44C12.6132 10.7144 12.332 10.9453 11.9952 11.1327C11.6584 11.3202 11.3319 11.4556 11.016 11.539C10.7 11.6224 10.3441 11.6851 9.94835 11.7267C10.3093 12.0391 10.4898 12.5322 10.4898 13.2057V15.4034C10.4898 15.5283 10.5333 15.6325 10.6202 15.7158C10.707 15.7989 10.844 15.8234 11.0316 15.7886C12.6428 15.254 13.957 14.2905 14.9743 12.8981C15.9915 11.5058 16.5002 9.93831 16.5002 8.19511C16.4999 6.74411 16.142 5.40577 15.4271 4.18009Z" fill="#09090B"/>
</svg>
