<svg width="17" height="16" viewBox="0 0 17 16" fill="none" xmlns="http://www.w3.org/2000/svg">
<path id="Vector" d="M9.02491 7.28V9.46667H14.2516C14.0916 10.6933 13.6829 11.5913 13.0602 12.222C12.2956 12.9867 11.1049 13.822 9.02491 13.822C5.80691 13.822 3.29158 11.2267 3.29158 8.00867C3.29158 4.79067 5.80691 2.19533 9.02491 2.19533C10.7582 2.19533 12.0296 2.88 12.9629 3.76L14.5009 2.222C13.2029 0.96 11.4602 0 9.02491 0C4.61624 0 0.909576 3.59133 0.909576 8C0.909576 12.4087 4.61624 16 9.02491 16C11.4069 16 13.2029 15.218 14.6069 13.76C16.0469 12.32 16.5002 10.2847 16.5002 8.64867C16.5002 8.142 16.4649 7.67067 16.3849 7.28H9.02491Z" fill="#09090B"/>
</svg>
